<svg xmlns="http://www.w3.org/2000/svg" viewBox="0 0 240 240" role="img" aria-labelledby="title desc">
  <title id="title">Erin Walsh avatar</title>
  <desc id="desc">Stylized portrait avatar for Erin Walsh</desc>
  <defs>
    <linearGradient id="bg" x1="0" x2="1" y1="0" y2="1">
      <stop offset="0" stop-color="#7c3aed"/>
      <stop offset="1" stop-color="#0f172a"/>
    </linearGradient>
  </defs>
  <rect width="240" height="240" rx="120" fill="url(#bg)"/>
  <path d="M61 115c0-54 24-81 61-81s58 29 58 81c0 44-20 74-58 74s-61-30-61-74Z" fill="#7c4a2d"/>
  <circle cx="120" cy="96" r="46" fill="#f1c7a6"/>
  <path d="M73 98c5-42 28-63 61-59 25 3 39 23 43 59-18-18-37-26-58-26-19 0-34 8-46 26Z" fill="#8b5a3c"/>
  <path d="M52 216c8-50 42-78 68-78s60 28 68 78" fill="#f8fafc"/>
  <path d="M82 218c7-34 24-54 38-54s31 20 38 54" fill="#6d28d9"/>
  <circle cx="103" cy="95" r="5" fill="#111827"/>
  <circle cx="137" cy="95" r="5" fill="#111827"/>
  <path d="M101 116c13 9 25 9 38 0" fill="none" stroke="#111827" stroke-width="6" stroke-linecap="round"/>
  <text x="120" y="226" text-anchor="middle" font-family="Inter, Arial" font-size="20" font-weight="700" fill="#ddd6fe">EW</text>
</svg>
