<svg xmlns="http://www.w3.org/2000/svg" viewBox="0 0 240 240" role="img" aria-labelledby="title desc">
  <title id="title">Marcus Johnson avatar</title>
  <desc id="desc">Stylized portrait avatar for Marcus Johnson</desc>
  <defs>
    <linearGradient id="bg" x1="0" x2="1" y1="0" y2="1">
      <stop offset="0" stop-color="#0f766e"/>
      <stop offset="1" stop-color="#0f172a"/>
    </linearGradient>
  </defs>
  <rect width="240" height="240" rx="120" fill="url(#bg)"/>
  <circle cx="120" cy="92" r="46" fill="#6b3f2a"/>
  <path d="M74 92c4-37 26-58 58-55 27 3 44 24 42 55-16-16-30-22-50-22-21 0-37 7-50 22Z" fill="#111827"/>
  <path d="M52 216c8-52 43-82 68-82s60 30 68 82" fill="#f8fafc"/>
  <path d="M78 218c7-37 25-58 42-58s35 21 42 58" fill="#14532d"/>
  <path d="M98 128c10 8 34 8 44 0v20c-9 10-35 10-44 0Z" fill="#5f3321"/>
  <circle cx="103" cy="90" r="5" fill="#111827"/>
  <circle cx="137" cy="90" r="5" fill="#111827"/>
  <path d="M101 113c13 10 25 10 38 0" fill="none" stroke="#111827" stroke-width="6" stroke-linecap="round"/>
  <text x="120" y="226" text-anchor="middle" font-family="Inter, Arial" font-size="20" font-weight="700" fill="#facc15">MJ</text>
</svg>
