<svg xmlns="http://www.w3.org/2000/svg" viewBox="0 0 240 240" role="img" aria-labelledby="title desc">
  <title id="title">Sofia Rivera avatar</title>
  <desc id="desc">Stylized portrait avatar for Sofia Rivera</desc>
  <defs>
    <linearGradient id="bg" x1="0" x2="1" y1="0" y2="1">
      <stop offset="0" stop-color="#be185d"/>
      <stop offset="1" stop-color="#f59e0b"/>
    </linearGradient>
  </defs>
  <rect width="240" height="240" rx="120" fill="url(#bg)"/>
  <path d="M58 116c0-55 27-84 65-84s61 31 61 84c0 46-20 78-62 78s-64-32-64-78Z" fill="#3b2416"/>
  <circle cx="120" cy="96" r="47" fill="#9f5f3f"/>
  <path d="M72 100c8-45 31-67 66-62 25 4 39 25 39 62-18-17-38-25-59-25-19 0-34 8-46 25Z" fill="#24140c"/>
  <path d="M51 216c8-50 43-79 69-79s61 29 69 79" fill="#fff7ed"/>
  <path d="M82 218c8-35 24-54 38-54s31 19 38 54" fill="#be185d"/>
  <circle cx="103" cy="94" r="5" fill="#1f2937"/>
  <circle cx="137" cy="94" r="5" fill="#1f2937"/>
  <path d="M101 116c12 10 27 10 39 0" fill="none" stroke="#1f2937" stroke-width="6" stroke-linecap="round"/>
  <text x="120" y="226" text-anchor="middle" font-family="Inter, Arial" font-size="20" font-weight="700" fill="#fff7ed">SR</text>
</svg>
