<svg xmlns="http://www.w3.org/2000/svg" viewBox="0 0 240 240" role="img" aria-labelledby="title desc">
  <title id="title">Tom Bennett avatar</title>
  <desc id="desc">Stylized portrait avatar for Tom Bennett</desc>
  <defs>
    <linearGradient id="bg" x1="0" x2="1" y1="0" y2="1">
      <stop offset="0" stop-color="#1d4ed8"/>
      <stop offset="1" stop-color="#312e81"/>
    </linearGradient>
  </defs>
  <rect width="240" height="240" rx="120" fill="url(#bg)"/>
  <circle cx="120" cy="94" r="46" fill="#e0b28c"/>
  <path d="M75 82c9-34 31-50 61-46 24 4 38 20 41 47-13-10-29-15-51-15-21 0-38 5-51 14Z" fill="#5b4636"/>
  <path d="M55 216c8-49 41-78 65-78s57 29 65 78" fill="#f8fafc"/>
  <path d="M78 218c7-37 24-58 42-58s35 21 42 58" fill="#1e3a8a"/>
  <path d="M98 128c10 8 34 8 44 0v20c-9 10-35 10-44 0Z" fill="#d8a37b"/>
  <circle cx="103" cy="94" r="5" fill="#111827"/>
  <circle cx="137" cy="94" r="5" fill="#111827"/>
  <path d="M101 115c13 9 25 9 38 0" fill="none" stroke="#111827" stroke-width="6" stroke-linecap="round"/>
  <text x="120" y="226" text-anchor="middle" font-family="Inter, Arial" font-size="20" font-weight="700" fill="#bfdbfe">TB</text>
</svg>
